<?xml version="1.0" encoding="UTF-8"?><svg id="_レイヤー_2" xmlns="http://www.w3.org/2000/svg" viewBox="0 0 169.36 146.78"><defs><style>.cls-1{fill:#d8c5bf;}</style></defs><g id="TOP"><path class="cls-1" d="M76.88.13c36.29-2.02,96.85,19.85,92.23,65.72-.95,9.4-4.3,18.62-7.36,27.5-4.58,12.8-8.82,27.06-20.78,34.86-10.63,7.02-23.48,8.64-35.88,10.84-12.93,2.41-25.88,6.87-39.12,7.63-22.26,1.54-40.65-14.16-56.12-28.49-3.6-3.67-6.89-7.8-8.54-12.64-3.29-10.89.14-21.77,4.56-34.17,4.17-10.97,9.87-21.95,15.22-31.63C33.01,18.31,51.45,1.66,76.88.13Z"/></g></svg>