<?xml version="1.0" encoding="UTF-8"?><svg id="_レイヤー_2" xmlns="http://www.w3.org/2000/svg" viewBox="0 0 474.51 371.32"><defs><style>.cls-1{fill:#ddcedd;}.cls-2{fill:#d8c5bf;}.cls-3{fill:#d9dbb6;}.cls-4{fill:#d8bf77;}.cls-5{fill:#bad0db;}.cls-6{fill:#d8bad5;}</style></defs><g id="TOP"><path class="cls-3" d="M471.86,330.18c-9.46,21.51-34.72,23.6-56.7,26.68-22.96,3.57-45.75,7.56-68.39,12.5-54.69,12.67-66.66-38.78-67.78-81.27-.72-33.65,4.97-80.37,46.13-84.6,19.45-1.64,37.45,7.89,54.38,16.77,27.57,18.85,61.03,32.92,80.97,60.33,4.29,6.03,7.77,12.58,11.2,19.14,3.37,9.74,4.08,21.33.18,30.44Z"/><path class="cls-1" d="M307.08,180c0,39.54-89.69,63.41-152.38,63.41s-88.65-37.16-88.65-76.7,85.27-83.86,147.97-83.86,93.06,57.62,93.06,97.15Z"/><path class="cls-5" d="M109.95,51.54C107.12,26.56,162.08,5.07,201.68.59c39.61-4.48,58.66,17.14,61.49,42.12s-47.88,59.07-87.49,63.55c-39.61,4.48-62.91-29.75-65.74-54.73Z"/><path class="cls-6" d="M.1,254.85c-2.83-24.98,52.13-46.47,91.73-50.95s58.66,17.14,61.49,42.12c2.83,24.98-47.88,59.07-87.49,63.55C26.23,314.05,2.93,279.82.1,254.85Z"/><path class="cls-2" d="M355.81,38.54c36.29-2.02,96.85,19.85,92.23,65.72-.95,9.4-4.3,18.62-7.36,27.5-4.58,12.8-8.82,27.06-20.78,34.86-10.63,7.02-23.48,8.64-35.88,10.84-12.93,2.41-25.88,6.87-39.12,7.63-22.26,1.54-40.65-14.16-56.12-28.49-3.6-3.67-6.89-7.8-8.54-12.64-3.29-10.89.14-21.77,4.56-34.17,4.17-10.97,9.87-21.95,15.22-31.63,11.92-21.44,30.35-38.08,55.79-39.62Z"/><path class="cls-4" d="M128.95,319.84c-5.22-4.49-6.8-11.53-3.59-17.55,3.82-7.78,12.74-13.17,20.38-17.34,30.74-16.84,61.37-33.84,92.07-50.73,11.38-5.91,23.99-12.93,37-12.89,12.61.07,19.87,10.14,18.76,22.42-.75,9.9-4.89,19.24-9.19,28.09-7.09,14.08-15.05,27.55-22.78,41.23-21,36.81-37.39,50.8-80.52,31.64-9.82-4.1-19.27-8.43-28.88-12.61-7.72-3.52-17.19-6.87-23.16-12.19l-.08-.08Z"/></g></svg>