<?xml version="1.0" encoding="UTF-8"?><svg id="_レイヤー_2" xmlns="http://www.w3.org/2000/svg" viewBox="0 0 342.44 296.78"><defs><style>.cls-1{fill:#d8c5bf;}</style></defs><g id="WORK"><path class="cls-1" d="M155.45.26c73.37-4.09,195.83,40.13,186.48,132.89-1.91,19-8.7,37.65-14.88,55.6-9.25,25.88-17.83,54.71-42.02,70.49-21.5,14.19-47.48,17.47-72.56,21.91-26.13,4.87-52.32,13.9-79.09,15.42-45.01,3.11-82.2-28.63-113.47-57.6-7.28-7.42-13.93-15.76-17.27-25.56-6.64-22.01.29-44.01,9.23-69.09,8.44-22.19,19.95-44.37,30.78-63.95C66.74,37.03,104.02,3.36,155.45.26Z"/></g></svg>