<?xml version="1.0" encoding="UTF-8"?><svg id="_レイヤー_2" xmlns="http://www.w3.org/2000/svg" viewBox="0 0 306.76 198.26"><defs><style>.cls-1,.cls-2{fill:none;}.cls-2{stroke:#ccbfac;stroke-linecap:round;stroke-linejoin:round;stroke-width:24px;}</style></defs><g id="TOP"><path class="cls-2" d="M13.5,148.8c23.44,0,23.44,11.91,46.87,11.91s23.44-11.91,46.87-11.91,23.44,11.91,46.88,11.91,23.44-11.91,46.87-11.91,23.44,11.91,46.88,11.91,23.44-11.91,46.88-11.91"/><path class="cls-2" d="M13.5,86.65c23.44,0,23.44,11.91,46.87,11.91s23.44-11.91,46.87-11.91,23.44,11.91,46.88,11.91,23.44-11.91,46.87-11.91,23.44,11.91,46.88,11.91,23.44-11.91,46.88-11.91"/><path class="cls-2" d="M13.5,24.51c23.44,0,23.44,11.91,46.87,11.91s23.44-11.91,46.87-11.91,23.44,11.91,46.88,11.91,23.44-11.91,46.87-11.91,23.44,11.91,46.88,11.91,23.44-11.91,46.88-11.91"/><rect class="cls-1" width="294.76" height="198.26"/></g></svg>