<?xml version="1.0" encoding="UTF-8"?><svg id="_レイヤー_2" xmlns="http://www.w3.org/2000/svg" viewBox="0 0 169.97 131.96"><defs><style>.cls-1{fill:#d8bf77;}</style></defs><g id="TOP"><path class="cls-1" d="M5.25,98.51C.03,94.02-1.55,86.98,1.66,80.96c3.82-7.78,12.74-13.17,20.38-17.34,30.74-16.84,61.37-33.84,92.07-50.73C125.49,6.98,138.1-.04,151.1,0c12.61.07,19.87,10.14,18.76,22.42-.75,9.9-4.89,19.24-9.19,28.09-7.09,14.08-15.05,27.55-22.78,41.23-21,36.81-37.39,50.8-80.52,31.64-9.82-4.1-19.27-8.43-28.88-12.61-7.72-3.52-17.19-6.87-23.16-12.19l-.08-.08Z"/></g></svg>