<?xml version="1.0" encoding="UTF-8"?><svg id="_レイヤー_2" xmlns="http://www.w3.org/2000/svg" viewBox="0 0 203.66 176.5"><defs><style>.cls-1{fill:#d8c5bf;}</style></defs><g id="TOP"><path class="cls-1" d="M92.45.15c43.63-2.43,116.46,23.86,110.9,79.03-1.14,11.3-5.17,22.39-8.85,33.07-5.5,15.39-10.6,32.53-24.99,41.92-12.79,8.44-28.24,10.39-43.15,13.03-15.54,2.89-31.11,8.27-47.04,9.17-26.77,1.85-48.88-17.02-67.48-34.26-4.33-4.41-8.28-9.37-10.27-15.2-3.95-13.09.17-26.17,5.49-41.09,5.02-13.19,11.87-26.39,18.3-38.03C39.69,22.02,61.86,2,92.45.15Z"/></g></svg>