<?xml version="1.0" encoding="UTF-8"?><svg id="_レイヤー_2" xmlns="http://www.w3.org/2000/svg" viewBox="0 0 374.96 291.1"><defs><style>.cls-1{fill:#d8bf77;}</style></defs><g id="TOP"><path class="cls-1" d="M11.58,217.32C.06,207.41-3.42,191.89,3.66,178.61c8.44-17.17,28.11-29.06,44.96-38.25C116.44,103.21,184,65.71,251.72,28.43,276.84,15.4,304.65-.08,333.34,0c27.81.17,43.83,22.36,41.38,49.45-1.66,21.83-10.8,42.44-20.26,61.98-15.64,31.07-33.2,60.77-50.25,90.97-46.33,81.2-82.49,112.06-177.63,69.81-21.67-9.05-42.52-18.59-63.71-27.82-17.03-7.75-37.93-15.16-51.09-26.89l-.19-.17Z"/></g></svg>