<?xml version="1.0" encoding="UTF-8"?><svg id="_レイヤー_2" xmlns="http://www.w3.org/2000/svg" viewBox="0 0 159.48 30"><defs><style>.cls-1{fill:#452e13;}</style></defs><g id="TOP"><path class="cls-1" d="M145.24,30c-8.56,0-14.08-4.37-14.08-11.14V1.87c0-.64.52-1.16,1.16-1.16h2.71c.64,0,1.16.52,1.16,1.16v16.62c0,5.97,5.76,6.87,9.2,6.87,4.11,0,9-1.2,9-6.91V1.87c0-.64.52-1.16,1.16-1.16h2.76c.64,0,1.16.52,1.16,1.16v16.53c0,7.15-5.46,11.6-14.24,11.6Z"/><path class="cls-1" d="M145.24,29.7c-7.98,0-13.78-3.85-13.78-10.84V1.87c0-.47.39-.86.86-.86h2.71c.47,0,.86.39.86.86v16.62c0,4.96,3.9,7.17,9.5,7.17s9.3-2.16,9.3-7.22V1.87c0-.47.39-.86.86-.86h2.76c.47,0,.86.39.86.86v16.53c0,7.39-5.73,11.29-13.93,11.29Z"/><path class="cls-1" d="M145.24,29.34c-8.28,0-13.42-4.02-13.42-10.48V1.87c0-.28.23-.5.5-.5h2.71c.28,0,.5.23.5.5v16.62c0,4.78,3.59,7.53,9.86,7.53,3.61,0,9.66-.98,9.66-7.57V1.87c0-.27.23-.5.5-.5h2.76c.28,0,.5.23.5.5v16.53c0,6.85-5.08,10.94-13.58,10.94Z"/><path class="cls-1" d="M145.24,29.03c-7.51,0-13.12-3.38-13.12-10.17V1.87c0-.11.09-.2.2-.2h2.71c.11,0,.2.09.2.2v16.62c0,5.46,4.36,7.83,10.16,7.83s9.96-2.14,9.96-7.88c0,.13,0-14.62,0-16.58,0-.11.09-.19.2-.19h2.76c.11,0,.2.09.2.2v16.53c0,7.11-5.46,10.63-13.27,10.63Z"/><path class="cls-1" d="M145.24,30c-8.56,0-14.08-4.37-14.08-11.14V1.87c0-.64.52-1.16,1.16-1.16h2.71c.64,0,1.16.52,1.16,1.16v16.62c0,5.97,5.76,6.87,9.2,6.87,4.11,0,9-1.2,9-6.91V1.87c0-.64.52-1.16,1.16-1.16h2.76c.64,0,1.16.52,1.16,1.16v16.53c0,7.15-5.46,11.6-14.24,11.6Z"/><path class="cls-1" d="M145.24,29.7c-7.98,0-13.78-3.85-13.78-10.84V1.87c0-.47.39-.86.86-.86h2.71c.47,0,.86.39.86.86v16.62c0,4.96,3.9,7.17,9.5,7.17s9.3-2.16,9.3-7.22V1.87c0-.47.39-.86.86-.86h2.76c.47,0,.86.39.86.86v16.53c0,7.39-5.73,11.29-13.93,11.29Z"/><path class="cls-1" d="M145.24,29.34c-8.28,0-13.42-4.02-13.42-10.48V1.87c0-.28.23-.5.5-.5h2.71c.28,0,.5.23.5.5v16.62c0,4.78,3.59,7.53,9.86,7.53,3.61,0,9.66-.98,9.66-7.57V1.87c0-.27.23-.5.5-.5h2.76c.28,0,.5.23.5.5v16.53c0,6.85-5.08,10.94-13.58,10.94Z"/><path class="cls-1" d="M145.24,29.03c-7.51,0-13.12-3.38-13.12-10.17V1.87c0-.11.09-.2.2-.2h2.71c.11,0,.2.09.2.2v16.62c0,5.46,4.36,7.83,10.16,7.83s9.96-2.14,9.96-7.88c0,.13,0-14.62,0-16.58,0-.11.09-.19.2-.19h2.76c.11,0,.2.09.2.2v16.53c0,7.11-5.46,10.63-13.27,10.63Z"/><path class="cls-1" d="M67.21,30c-8.56,0-14.08-4.37-14.08-11.14V2.34c0-.64.52-1.16,1.16-1.16h2.71c.64,0,1.16.52,1.16,1.16v16.15c0,5.97,5.76,6.87,9.2,6.87,4.11,0,9-1.2,9-6.91V2.34c0-.64.52-1.16,1.16-1.16h2.76c.64,0,1.16.52,1.16,1.16v16.06c0,7.15-5.46,11.6-14.24,11.6Z"/><path class="cls-1" d="M67.21,29.7c-7.98,0-13.78-3.85-13.78-10.84V2.34c0-.47.39-.86.86-.86h2.71c.47,0,.86.39.86.86v16.15c0,4.96,3.9,7.17,9.5,7.17s9.3-2.16,9.3-7.22V2.34c0-.47.39-.86.86-.86h2.76c.47,0,.86.39.86.86v16.06c0,7.39-5.73,11.29-13.93,11.29Z"/><path class="cls-1" d="M67.21,29.34c-8.28,0-13.42-4.02-13.42-10.48V2.34c0-.28.23-.5.5-.5h3.21v16.66c0,4.78,3.59,7.53,9.86,7.53,3.61,0,9.66-.98,9.66-7.57V2.34c0-.27.23-.5.5-.5h2.76c.28,0,.5.23.5.5v16.06c0,6.85-5.08,10.94-13.58,10.94Z"/><path class="cls-1" d="M67.21,29.03c-7.51,0-13.12-3.38-13.12-10.17V2.34c0-.11.09-.2.2-.2h2.91v16.35c0,5.46,4.36,7.83,10.16,7.83s9.96-2.14,9.96-7.88c0,.13,0-14.15,0-16.11,0-.11.09-.19.2-.19h2.76c.11,0,.2.09.2.2v16.06c0,7.11-5.46,10.63-13.27,10.63Z"/><path class="cls-1" d="M67.21,30c-8.56,0-14.08-4.37-14.08-11.14V2.34c0-.64.52-1.16,1.16-1.16h2.71c.64,0,1.16.52,1.16,1.16v16.15c0,5.97,5.76,6.87,9.2,6.87,4.11,0,9-1.2,9-6.91V2.34c0-.64.52-1.16,1.16-1.16h2.76c.64,0,1.16.52,1.16,1.16v16.06c0,7.15-5.46,11.6-14.24,11.6Z"/><path class="cls-1" d="M67.21,29.7c-7.98,0-13.78-3.85-13.78-10.84V2.34c0-.47.39-.86.86-.86h2.71c.47,0,.86.39.86.86v16.15c0,4.96,3.9,7.17,9.5,7.17s9.3-2.16,9.3-7.22V2.34c0-.47.39-.86.86-.86h2.76c.47,0,.86.39.86.86v16.06c0,7.39-5.73,11.29-13.93,11.29Z"/><path class="cls-1" d="M67.21,29.34c-8.28,0-13.42-4.02-13.42-10.48V2.34c0-.28.23-.5.5-.5h3.21v16.66c0,4.78,3.59,7.53,9.86,7.53,3.61,0,9.66-.98,9.66-7.57V2.34c0-.27.23-.5.5-.5h2.76c.28,0,.5.23.5.5v16.06c0,6.85-5.08,10.94-13.58,10.94Z"/><path class="cls-1" d="M67.21,29.03c-7.51,0-13.12-3.38-13.12-10.17V2.34c0-.11.09-.2.2-.2h2.91v16.35c0,5.46,4.36,7.83,10.16,7.83s9.96-2.14,9.96-7.88c0,.13,0-14.15,0-16.11,0-.11.09-.19.2-.19h2.76c.11,0,.2.09.2.2v16.06c0,7.11-5.46,10.63-13.27,10.63Z"/><path class="cls-1" d="M38.16,28.38c-.56,0-1.02-.52-1.02-1.16v-14.81c0-4.73-1.7-6.49-6.26-6.49s-6.8,1.89-6.88,6.31c0,.08,0,.15,0,.23v14.77c0,.15-.03.3-.07.44-.04.12-.11.26-.21.37-.19.23-.45.36-.73.36h-3.53c-.56,0-1.02-.52-1.02-1.16v-14.72c0-.22,0-.51.02-.8-.28-4.03-2.45-5.83-7.03-5.83s-6.09,1.72-6.09,6.59v14.77c0,.64-.46,1.16-1.02,1.16H1.03c-.57,0-1.03-.52-1.03-1.16v-14.72C0,5.12,4.2.9,11.52.9c4.2,0,7.65,1.49,9.71,4.2,2.06-2.71,5.53-4.2,9.76-4.2,7.13,0,11.39,4.16,11.39,11.14v15.18c0,.64-.46,1.16-1.02,1.16h-3.2Z"/><path class="cls-1" d="M.3,27.21v-14.72c0-7.39,4.34-11.29,11.22-11.29,4.05,0,7.43,1.41,9.47,4.08.13.16.37.16.49,0,2.05-2.69,5.41-4.08,9.51-4.08,6.69,0,11.08,3.85,11.08,10.84v15.18c0,.47-.32.86-.72.86h-3.2c-.4,0-.72-.39-.72-.86v-14.81c0-4.96-1.87-6.8-6.57-6.8-4.57,0-7.1,1.72-7.19,6.61,0,.07,0,.15,0,.23v14.77c0,.12-.02.23-.06.33-.03.1-.09.2-.15.27-.13.16-.31.25-.5.25h-3.53c-.4,0-.72-.39-.72-.86v-14.72c0-.27,0-.54.02-.8-.3-4.46-2.87-6.14-7.34-6.14-4.64,0-6.4,1.83-6.4,6.89v14.77c0,.47-.32.85-.72.85H1.03c-.4,0-.72-.39-.72-.86Z"/><path class="cls-1" d="M116.57,28.38c-.43,0-.84-.16-1.12-.45l-.09-.09-9.02-9.78-8.57,9.74c-.12.12-.23.22-.34.29h-.01s-.09.07-.13.1c-.13.08-.29.14-.46.17h-.04c-.06,0-.1.01-.17.01h-2.62c-.7,0-1.27-.57-1.27-1.28V1.29c0-.71.57-1.29,1.27-1.29h2.15c.06,0,.11,0,.16,0,.2.03.35.09.5.18.07.04.12.08.16.12l.03.02h0c.27.25.42.6.42.96v19.6L115.36.54l.08-.09c.29-.29.7-.45,1.13-.45h2.62c.28,0,1.14,0,1.41.69.02.06.03.11.04.15.09.59-.74,1.53-.91,1.71l-4.1,5.02-6.06,6.85,6.05,6.84,4.11,4.56c.17.18,1,1.12.9,1.71,0,.04-.02.08-.03.13-.27.71-1.13.71-1.42.71h-2.62Z"/><path class="cls-1" d="M119.51,26.03c.3.33.89,1.08.83,1.46,0,.03-.01.06-.02.08-.15.4-.6.5-1.13.5h-2.62c-.37,0-.69-.14-.9-.35-.03-.03-.06-.06-.08-.08l-9.25-10.03-8.79,10c-.09.1-.19.18-.29.24,0,0,0,0-.02.01-.03.03-.07.06-.11.08-.11.07-.23.11-.35.13-.05,0-.09,0-.15,0h-2.62c-.53,0-.96-.43-.96-.98V1.29c0-.54.43-.98.96-.98h2.15c.06,0,.1,0,.15,0,.13.02.25.07.35.13.04.02.08.05.11.08,0,0,.01,0,.02.01.21.18.34.45.34.74v19.99c0,.15.17.22.26.12l6.14-6.97,2.8-3.18L115.58.74s.06-.06.08-.08c.21-.21.54-.35.9-.35h2.62c.53,0,.97.1,1.13.5,0,.03.02.06.02.08.06.37-.53,1.13-.83,1.46l-4.11,5.03-6.23,7.04,6.23,7.04,4.11,4.57Z"/><path class="cls-1" d="M116.57,28.38c-.43,0-.84-.16-1.12-.45l-.09-.09-9.02-9.78-8.57,9.74c-.12.12-.23.22-.34.29h-.01s-.09.07-.13.1c-.13.08-.29.14-.46.17h-.04c-.06,0-.1.01-.17.01h-2.62c-.7,0-1.27-.57-1.27-1.28V1.29c0-.71.57-1.29,1.27-1.29h2.15c.06,0,.11,0,.16,0,.2.03.35.09.5.18.07.04.12.08.16.12l.03.02h0c.27.25.42.6.42.96v19.6L115.36.54l.08-.09c.29-.29.7-.45,1.13-.45h2.62c.28,0,1.14,0,1.41.69.02.06.03.11.04.15.09.59-.74,1.53-.91,1.71l-4.1,5.02-6.06,6.85,6.05,6.84,4.11,4.56c.17.18,1,1.12.9,1.71,0,.04-.02.08-.03.13-.27.71-1.13.71-1.42.71h-2.62Z"/><path class="cls-1" d="M119.51,26.03c.3.33.89,1.08.83,1.46,0,.03-.01.06-.02.08-.15.4-.6.5-1.13.5h-2.62c-.37,0-.69-.14-.9-.35-.03-.03-.06-.06-.08-.08l-9.25-10.03-8.79,10c-.09.1-.19.18-.29.24,0,0,0,0-.02.01-.03.03-.07.06-.11.08-.11.07-.23.11-.35.13-.05,0-.09,0-.15,0h-2.62c-.53,0-.96-.43-.96-.98V1.29c0-.54.43-.98.96-.98h2.15c.06,0,.1,0,.15,0,.13.02.25.07.35.13.04.02.08.05.11.08,0,0,.01,0,.02.01.21.18.34.45.34.74v19.99c0,.15.17.22.26.12l6.14-6.97,2.8-3.18L115.58.74s.06-.06.08-.08c.21-.21.54-.35.9-.35h2.62c.53,0,.97.1,1.13.5,0,.03.02.06.02.08.06.37-.53,1.13-.83,1.46l-4.11,5.03-6.23,7.04,6.23,7.04,4.11,4.57Z"/></g></svg>