<?xml version="1.0" encoding="UTF-8"?><svg id="_レイヤー_2" xmlns="http://www.w3.org/2000/svg" viewBox="0 0 896.87 607.24"><defs><style>.cls-1{fill:#d8bf77;}</style></defs><g id="_サンクスページ"><path class="cls-1" d="M17.84,370.17c-22.12-26.44-24.16-62.47-3.41-89.56,25.23-35.3,73.66-54.66,114.76-69.01,165.52-58.09,330.58-117.05,495.93-175.47,61.03-19.89,128.99-44.27,193.18-33.48,62.18,10.64,89.85,66.24,74.34,125.97-11.78,48.25-39.85,91-68.25,131.23-46.49,63.76-96.75,123.75-146.09,185.03-133.7,164.62-226.03,220.33-423.37,90.61-45.16-28.26-88.29-57.31-132.32-85.81-35.24-23.65-79.3-47.95-104.42-79.06l-.36-.45Z"/></g></svg>